<svg width="1921" height="2895" viewBox="0 0 1921 2895" xmlns="http://www.w3.org/2000/svg">
    <g fill="none" fill-rule="evenodd">
        <path d="M1 1960s494 211 599 434 334 415 638 395 683 62 683 62v43H1v-934zM1 41.685s306-154 597 130c180.791 176.442 237 511 461 563s690-48 862 206v319s-224 490-763-42c-227.531-224.576-788-51-1157-406v-770z" fill-opacity=".3" fill="#00B8B4"/>
        <path d="M1921 988.685s-306-154-597 130c-180.791 176.442-237 511-461 563s-690-48-862 206v386.818s455 138 736-193c94.294-111.072 277-286 459-255s507 214 725-45V988.685z" fill-opacity=".3" fill="#00B8B4"/>
        <path d="M233.793 111.462S-1.731 268.808-181.937 307.686c-180.206 38.878-218.798 196.262-189.155 329.92 33.346 150.362 182.205 245.207 332.485 211.842.179-.04.356-.087.536-.127l.002.007.026-.013a280.57 280.57 0 0 0 42.198-13.017c55.961-12.068 171.688-22.713 371.382 17.503 56.927 12.676 117.464 13.377 178.158-.098 221.7-49.222 361.542-268.945 312.348-490.767C816.848 141.115 597.244 1.196 375.545 50.417c-52.27 11.605-99.988 32.691-141.752 61.045M1675.55 785.103s251.456-27.558 397.059-104.409c145.603-76.85 262.353 8.667 318.8 117.124 63.503 122.01 16.11 272.35-105.855 335.794-.146.075-.293.145-.44.22l.003.007-.026.006a250.569 250.569 0 0 1-36.34 15.318c-45.214 23.869-130.497 83.02-244.029 225.169-31.668 41.35-72.681 76.583-121.94 102.206-179.928 93.594-401.733 23.551-495.416-156.446-93.682-179.996-23.765-401.784 156.163-495.378 42.422-22.066 87.172-35.033 132.021-39.61" fill-opacity=".4" fill="#F2EDDA"/>
        <path d="M21.774 987.517s132.345 52.588 199.884 116.085c67.54 63.498 143.669 34.559 190.5-15.854 52.684-56.714 49.417-145.398-7.296-198.081-.068-.063-.138-.123-.206-.186l.002-.003-.013-.007a141.029 141.029 0 0 0-17.434-13.752c-20.971-19.721-58.42-64.586-98.802-158.722-11.01-27.182-28.005-52.44-50.911-73.718C153.832 565.558 23 570.377-54.72 654.043c-77.722 83.667-72.903 214.498 10.764 292.219 19.726 18.325 42.075 32.059 65.73 41.255M-31.245 2710.318s159.442 63.356 240.81 139.854c81.369 76.5 173.085 41.635 229.505-19.1 63.471-68.326 59.535-175.169-8.79-238.638-.082-.076-.166-.149-.248-.225l.003-.003-.016-.009a169.905 169.905 0 0 0-21.004-16.567c-25.265-23.76-70.38-77.81-119.032-191.22-13.264-32.748-33.739-63.178-61.335-88.813-100.796-93.634-258.415-87.829-352.05 12.968-93.635 100.798-87.83 258.417 12.968 352.051 23.765 22.077 50.69 38.624 79.189 49.702M1746.016 1091.684s-244.712 163.463-431.948 203.853c-187.236 40.39-227.334 203.893-196.534 342.748 34.647 156.208 189.313 254.741 345.456 220.078.186-.042.37-.09.557-.131l.002.007s.022-.01.027-.014a291.542 291.542 0 0 0 43.844-13.523c58.144-12.537 178.386-23.596 385.87 18.184 59.148 13.168 122.047 13.897 185.109-.102 230.349-51.135 375.647-279.402 324.533-509.85-51.114-230.445-279.285-375.805-509.633-324.67-54.309 12.057-103.889 33.963-147.283 63.42" fill-opacity=".4" fill="#F2EDDA"/>
        <path d="M348.016 1835.684s-244.712 163.463-431.948 203.853c-187.236 40.39-227.334 203.893-196.534 342.748 34.647 156.208 189.313 254.741 345.456 220.078.186-.042.37-.09.557-.131l.002.007s.022-.01.027-.014a291.542 291.542 0 0 0 43.844-13.523c58.144-12.537 178.386-23.596 385.87 18.184 59.148 13.168 122.047 13.897 185.109-.102 230.349-51.135 375.647-279.402 324.533-509.85-51.114-230.445-279.285-375.805-509.633-324.67-54.309 12.057-103.889 33.963-147.283 63.42" fill-opacity=".4" fill="#F2EDDA"/>
    </g>
</svg>
