<svg width="520" height="460" viewBox="0 0 520 460" xmlns="http://www.w3.org/2000/svg">
    <path d="M228.048 409.904c27.314 9.883 81.255 19.998 108.846 18.546 49.714-2.616 91.571-27.195 118.146-60.34 26.575-33.147 39.257-74.258 45.713-116.13 2.243-14.553 3.775-29.458 1.099-44.632-5.702-32.324-30.398-63.16-61.111-85.873-30.714-22.714-67.113-38.23-103.631-51.2C271.545 46.994 177.42 21.026 118.36 49.5c-32.391 15.616-55.672 41.577-71.91 70.405-7.681 13.636-15.238 28.645-21.38 44.12-5.356 13.49-10.123 27.214-11.988 40.929-12.571 92.479 57.003 147.791 214.966 204.95" fill="#F2EDDA" fill-rule="evenodd"/>
</svg>
