<svg width="520" height="460" viewBox="0 0 520 460" xmlns="http://www.w3.org/2000/svg">
    <path d="M322.281 401.777c28.596-5.097 80.367-23.308 103.536-38.361 41.746-27.123 65.706-69.337 72.147-111.33 6.442-41.992-3.13-83.937-18.476-123.427-5.334-13.726-11.46-27.4-21.364-39.202-21.1-25.143-57.905-39.499-95.86-43.813-37.956-4.314-77.237.448-115.347 7.476-68.422 12.619-162.92 37.191-199.832 91.382-20.243 29.72-27.425 63.842-27.073 96.927.166 15.65 1.127 32.427 3.544 48.899 2.107 14.36 4.84 28.63 10.083 41.44 35.353 86.374 123.262 99.489 288.642 70.01" fill="#F2EDDA" fill-rule="evenodd"/>
</svg>
