<svg width="520" height="460" viewBox="0 0 520 460" xmlns="http://www.w3.org/2000/svg">
    <path d="M377.276 370.116c25.128-14.57 67.549-49.39 84.172-71.459 29.952-39.764 38.028-87.628 29.719-129.292-8.31-41.662-31.65-77.804-59.576-109.664-9.707-11.073-20.14-21.827-33.484-29.53-28.427-16.41-67.922-17.313-105.064-8.385-37.142 8.928-72.426 26.837-105.834 46.476-59.98 35.26-140.374 90.67-156.526 154.217-8.857 34.85-3.935 69.372 7.711 100.342 5.509 14.649 12.15 30.085 20.055 44.737 6.891 12.774 14.34 25.248 23.648 35.492 62.762 69.074 149.856 51.332 295.18-32.934" fill="#F2EDDA" fill-rule="evenodd"/>
</svg>
