<svg id="圖層_1" data-name="圖層 1" xmlns="http://www.w3.org/2000/svg" viewBox="0 0 182 66"><path d="M54.13,8.19A32.35,32.35,0,1,0,65.73,33,32.22,32.22,0,0,0,54.13,8.19Z" fill="#fafafa"/><path d="M54.13,8.19,13.61,58.59A32.34,32.34,0,0,0,54.13,8.19Z" fill="#f2f2f2"/><path d="M1,33A32.26,32.26,0,0,0,13.61,58.59L34.23,32.94,12.52,8.26A32.28,32.28,0,0,0,1,33Z" fill="#fafafa"/><polygon points="29.84 37.48 43.46 37.48 49.68 29.33 47.11 21.7 38 24.17 39.29 29.25 32.2 29.25 29.84 37.48" fill="#131313"/><polygon points="47.34 22.65 42.91 22.84 36.58 23.91 39.29 29.33 45.37 25.89 47.34 22.65" fill="#333"/><polygon points="35.09 25.89 37.17 17.3 45.6 17.3 48.52 25.9 35.09 25.89"/><polygon points="33.69 17.3 25.79 17.3 18.77 46.27 28.37 46.27 35.45 17.3 33.69 17.3"/><polygon points="15.06 41.13 12.98 49.72 27.58 49.72 29.66 41.13 15.06 41.13" fill="#1a1a1a"/><polygon points="31.61 39.04 37.92 49.72 53.94 49.72 44.23 38.99 31.61 39.04"/><polygon points="20.86 17.3 18.77 25.89 33.37 25.89 35.45 17.3 20.86 17.3"/><polygon points="33.35 25.89 23.71 25.89 22.99 28.86 33.28 26.18 33.35 25.89" fill="#333"/><polygon points="43.88 49.72 53.94 46.27 53.94 49.72 43.88 49.72" fill="#333"/><polygon points="149.77 26.29 150.01 25.28 142.28 25.28 146.18 8.38 139.27 8.38 134.1 30.77 141.56 30.77 145.22 30.77 148.68 30.77 149.22 28.53 149.22 28.53 149.58 27.05 149.77 26.29 149.77 26.29" fill="#fafafa"/><path d="M93.91,10.33A3.53,3.53,0,0,0,91.46,8.7a43.41,43.41,0,0,0-6.56-.31H80L74.84,30.77h6.42l2.32-9.58H86l-.08.32-2.24,9.26h6.57l1.36-5.91a17.12,17.12,0,0,0,.59-3.31,2.48,2.48,0,0,0-.57-1.32A3.21,3.21,0,0,0,90,19.31l.08-.34a4.62,4.62,0,0,0,2.34-1A7,7,0,0,0,94,14.5C94.48,12.59,94.43,11.2,93.91,10.33ZM86,17.11h-1.4l1-4.09H88l-1,4.09Z" fill="#fafafa"/><polygon points="113.02 8.38 112.49 8.38 101.49 8.38 96.32 30.77 108.31 30.77 109.58 25.3 104.5 25.3 105.4 21.37 110.49 21.37 111.39 17.11 106.39 17.11 107.37 12.86 111.41 12.86 111.41 12.87 112.42 12.87 113.46 8.38 113.02 8.38" fill="#fafafa"/><path d="M120.78,8.39l-8.69,22.38h7.15l1.34-4h2.48l-.56,4h7.06l1.22-22.38Zm.63,14.39q.91-2.85,3.27-8.83h.15q-.7,5.22-1,8.83Z" fill="#fafafa"/><path d="M141.37,36.62,136.2,59h-6.91l5.17-22.38Z" fill="#fafafa"/><polygon points="85.19 36.62 84.66 36.62 73.66 36.62 68.5 59 80.48 59 81.75 53.54 76.67 53.54 77.58 49.6 82.66 49.6 83.57 45.34 78.56 45.34 79.54 41.1 83.59 41.1 83.59 41.11 84.59 41.11 85.63 36.62 85.19 36.62" fill="#fafafa"/><polygon points="180.56 36.62 180.03 36.62 169.03 36.62 163.86 59 175.85 59 177.12 53.54 172.04 53.54 172.95 49.6 178.03 49.6 178.94 45.34 173.93 45.34 174.91 41.1 178.96 41.1 178.96 41.11 179.96 41.11 181 36.62 180.56 36.62" fill="#fafafa"/><polygon points="100.63 36.62 98.41 46.27 98.24 46.27 96.76 36.62 90.98 36.62 85.81 59 91.59 59 93.8 49.45 94.02 49.45 95.19 59 101.25 59 106.41 36.62 100.63 36.62" fill="#fafafa"/><polygon points="156.94 36.62 154.72 46.27 154.55 46.27 153.07 36.62 147.29 36.62 142.12 59 147.9 59 150.11 49.45 150.33 49.45 151.5 59 157.56 59 162.73 36.62 156.94 36.62" fill="#fafafa"/><path d="M127.1,39.7a3.82,3.82,0,0,0-2-2.5,9.34,9.34,0,0,0-4.8-1.05A11.07,11.07,0,0,0,115,37.36,6.91,6.91,0,0,0,112,40a21.81,21.81,0,0,0-1.49,4.66L109,51.33a21.73,21.73,0,0,0-.6,3.46,4.17,4.17,0,0,0,.47,2.21,4.28,4.28,0,0,0,1.91,1.76,6.58,6.58,0,0,0,3.09.71,6.51,6.51,0,0,0,2.66-.52,6,6,0,0,0,1.92-1.33h.16L118.2,59h5L126,47h-8.09l-.79,3.4h1.4L117.92,53a6.43,6.43,0,0,1-.75,2.11,1.37,1.37,0,0,1-1.15.53c-.46,0-.73-.15-.81-.47a5.25,5.25,0,0,1,.23-2l2.48-10.74a12.76,12.76,0,0,1,.47-1.66h2a14.78,14.78,0,0,1-.36,2l-.47,2h6.91l.23-1A11.07,11.07,0,0,0,127.1,39.7Z" fill="#fafafa"/></svg>